<svg width="210" height="84" viewBox="0 0 210 84" fill="none" xmlns="http://www.w3.org/2000/svg">
<path d="M60.0604 42.3765H61.5606C62.8524 42.3765 63.9583 41.9181 64.8783 40.9948C65.7918 40.0813 66.2469 38.9819 66.2469 37.6901C66.2469 36.3951 65.7918 35.2893 64.8783 34.3757C63.9583 33.4558 62.8524 32.9943 61.5606 32.9943H60.0604V42.3765ZM58.0315 44.4054V30.9684H61.5606C63.4165 30.9684 65.0001 31.6255 66.3142 32.9397C67.622 34.2539 68.2759 35.8374 68.2759 37.6901C68.2759 39.5364 67.622 41.1199 66.3142 42.4341C65.0001 43.7484 63.4165 44.4054 61.5606 44.4054H58.0315ZM76.1195 32.8725C74.7924 32.8725 73.6578 33.3437 72.7186 34.2828C71.7794 35.2219 71.3114 36.3535 71.3114 37.6805C71.3114 39.0076 71.7794 40.1422 72.7186 41.0814C73.6578 42.0206 74.7924 42.4886 76.1195 42.4886C77.4465 42.4886 78.5781 42.0206 79.5172 41.0814C80.4564 40.1422 80.9275 39.0076 80.9275 37.6805C80.9275 36.3535 80.4564 35.2219 79.5172 34.2828C78.5781 33.3437 77.4465 32.8725 76.1195 32.8725V32.8725ZM76.1195 44.5368C74.2283 44.5368 72.6128 43.8669 71.2729 42.5271C69.9331 41.1873 69.2632 39.5717 69.2632 37.6805C69.2632 35.7893 69.9331 34.177 71.2729 32.8373C72.6128 31.4974 74.2283 30.8274 76.1195 30.8274C78.0075 30.8274 79.623 31.4974 80.9628 32.8373C82.3026 34.177 82.9726 35.7893 82.9726 37.6805C82.9726 39.5717 82.3026 41.1873 80.9628 42.5271C79.623 43.8669 78.0075 44.5368 76.1195 44.5368ZM89.4347 44.5272C88.1205 44.5272 86.9922 44.0625 86.0531 43.1297C85.1202 42.1969 84.6555 41.0686 84.6555 39.748V30.9588H86.7005V39.748C86.7005 40.5045 86.9666 41.1488 87.5019 41.6809C88.0372 42.2193 88.6847 42.4886 89.4347 42.4886C90.1912 42.4886 90.8387 42.2193 91.3708 41.6809C91.9093 41.1488 92.1753 40.5045 92.1753 39.748V30.9588H94.2236V39.748C94.2236 41.0686 93.7555 42.1969 92.8164 43.1297C91.8836 44.0625 90.7553 44.5272 89.4347 44.5272ZM102.808 44.5368C100.917 44.5368 99.3009 43.8669 97.9611 42.5271C96.6212 41.1873 95.9513 39.5717 95.9513 37.6805C95.9513 35.7893 96.6212 34.177 97.9611 32.8373C99.3009 31.4974 100.917 30.8274 102.808 30.8274C103.74 30.8274 104.628 31.0036 105.475 31.3627L104.683 33.2506C104.083 32.991 103.458 32.8628 102.808 32.8628C101.477 32.8628 100.346 33.3372 99.4067 34.2828C98.4675 35.2219 97.9995 36.3535 97.9995 37.6805C97.9995 39.0076 98.4675 40.1422 99.4067 41.0814C100.346 42.0206 101.477 42.4886 102.808 42.4886C103.237 42.4886 103.657 42.4374 104.064 42.3315V38.6678H101.884V36.6195H106.112V43.7291L105.49 43.9919C104.635 44.3542 103.74 44.5368 102.808 44.5368ZM107.689 30.9684V44.4054H114.543V42.3669H109.725V30.9684H107.689ZM123.97 30.9684L115.472 44.4054H117.886L119.867 41.2673H124.431V44.4054H126.476V30.9684H123.97ZM124.431 34.0552V39.2318H121.152L124.431 34.0552V34.0552ZM132.602 44.5368C132.515 44.5368 132.429 44.5337 132.348 44.5272C131.457 44.4887 130.64 44.2515 129.887 43.8124C129.037 43.3189 128.457 42.6553 128.149 41.8218L130.066 41.1199C130.223 41.5302 130.544 41.8668 131.034 42.1232C131.464 42.3412 131.935 42.4661 132.442 42.4886C133.224 42.5206 133.871 42.3315 134.387 41.9181C134.817 41.5654 135.047 41.1649 135.07 40.716C135.108 39.857 134.211 39.1709 132.377 38.6582C129.502 37.8504 128.111 36.4817 128.198 34.5553C128.252 33.2026 128.832 32.1897 129.935 31.5198C130.775 31.0069 131.781 30.7793 132.958 30.8371C134.387 30.8979 135.531 31.3947 136.394 32.3275L134.903 33.7186C134.413 33.193 133.733 32.9109 132.865 32.8725C132.252 32.8499 131.727 32.9269 131.297 33.1097C130.621 33.3949 130.265 33.911 130.236 34.6482C130.198 35.4944 131.095 36.174 132.929 36.6869C134.583 37.1485 135.753 37.8312 136.442 38.7319C136.919 39.3601 137.141 40.0524 137.109 40.8089C137.06 41.8731 136.576 42.774 135.663 43.5143C134.81 44.1971 133.791 44.5368 132.602 44.5368V44.5368Z" fill="#0999F6"/>
<path d="M145.494 42.3765H146.994C148.286 42.3765 149.392 41.9181 150.312 40.9948C151.225 40.0813 151.68 38.9819 151.68 37.6901C151.68 36.3951 151.225 35.2893 150.312 34.3757C149.392 33.4558 148.286 32.9943 146.994 32.9943H145.494V42.3765ZM143.465 44.4054V30.9684H146.994C148.85 30.9684 150.433 31.6255 151.748 32.9397C153.055 34.2539 153.709 35.8374 153.709 37.6901C153.709 39.5364 153.055 41.1199 151.748 42.4341C150.433 43.7484 148.85 44.4054 146.994 44.4054H143.465ZM157.344 36.706V33.0038H160.264C160.771 33.0038 161.207 33.1865 161.569 33.5487C161.928 33.9142 162.104 34.3501 162.104 34.863C162.104 35.3726 161.928 35.8021 161.569 36.1611C161.207 36.5233 160.771 36.706 160.264 36.706H157.344ZM161.787 38.4338C162.489 38.1325 163.053 37.6613 163.486 37.0235C163.931 36.3727 164.152 35.6514 164.152 34.863C164.152 33.786 163.771 32.8693 163.008 32.1128C162.248 31.35 161.335 30.9684 160.264 30.9684H155.306V44.4054H157.344V38.7415H159.646L162.585 44.4054H164.886L161.787 38.4338V38.4338ZM172.182 32.8725C170.855 32.8725 169.72 33.3437 168.781 34.2828C167.842 35.2219 167.374 36.3535 167.374 37.6805C167.374 39.0076 167.842 40.1422 168.781 41.0814C169.72 42.0206 170.855 42.4886 172.182 42.4886C173.509 42.4886 174.64 42.0206 175.58 41.0814C176.519 40.1422 176.99 39.0076 176.99 37.6805C176.99 36.3535 176.519 35.2219 175.58 34.2828C174.64 33.3437 173.509 32.8725 172.182 32.8725ZM172.182 44.5368C170.291 44.5368 168.675 43.8669 167.335 42.5271C165.996 41.1873 165.326 39.5717 165.326 37.6805C165.326 35.7893 165.996 34.177 167.335 32.8373C168.675 31.4974 170.291 30.8274 172.182 30.8274C174.07 30.8274 175.685 31.4974 177.025 32.8373C178.365 34.177 179.035 35.7893 179.035 37.6805C179.035 39.5717 178.365 41.1873 177.025 42.5271C175.685 43.8669 174.07 44.5368 172.182 44.5368ZM179.667 30.9684V33.0038H183.683L178.622 44.4054H185.853V42.3669H181.76L186.821 30.9684H179.667V30.9684ZM190.344 42.3765H191.844C193.136 42.3765 194.242 41.9181 195.161 40.9948C196.075 40.0813 196.53 38.9819 196.53 37.6901C196.53 36.3951 196.075 35.2893 195.161 34.3757C194.242 33.4558 193.136 32.9943 191.844 32.9943H190.344V42.3765ZM188.315 44.4054V30.9684H191.844C193.7 30.9684 195.283 31.6255 196.597 32.9397C197.905 34.2539 198.559 35.8374 198.559 37.6901C198.559 39.5364 197.905 41.1199 196.597 42.4341C195.283 43.7484 193.7 44.4054 191.844 44.4054H188.315ZM205.97 30.9684L197.473 44.4054H199.886L201.867 41.2673H206.432V44.4054H208.477V30.9684H205.97ZM206.432 34.0552V39.2318H203.152L206.432 34.0552V34.0552Z" fill="white"/>
<path d="M58.1259 53.2519V49.2843H59.3395C59.9454 49.2843 60.4322 49.4671 60.7996 49.8329C61.1672 50.1985 61.351 50.677 61.351 51.2681C61.351 51.8628 61.1672 52.3422 60.7996 52.7061C60.4322 53.07 59.9454 53.2519 59.3395 53.2519H58.1259V53.2519ZM58.6359 49.772V52.7643H59.3395C59.8014 52.7643 60.1652 52.6322 60.4312 52.3681C60.6972 52.104 60.8302 51.7372 60.8302 51.2681C60.8302 50.8026 60.6972 50.4368 60.4312 50.1709C60.1652 49.9049 59.8014 49.772 59.3395 49.772H58.6359V49.772ZM70.3669 49.2843V49.772H68.5604V51.0299H70.1896V51.5064H68.5604V52.7643H70.3669V53.2519H68.0505V49.2843H70.3669ZM79.5986 52.1935C79.5986 52.5408 79.4712 52.8196 79.2163 53.0302C78.9577 53.2371 78.6436 53.3405 78.2742 53.3405C77.9455 53.3405 77.6555 53.2445 77.4043 53.0523C77.1531 52.8603 76.9795 52.598 76.8833 52.2656L77.371 52.066C77.4043 52.1843 77.4505 52.2915 77.5095 52.3875C77.5686 52.4835 77.6379 52.5656 77.7173 52.634C77.7968 52.7024 77.8845 52.7559 77.9806 52.7947C78.0767 52.8335 78.1782 52.8529 78.2853 52.8529C78.5181 52.8529 78.7083 52.7929 78.8561 52.6728C79.0039 52.5527 79.0778 52.393 79.0778 52.1935C79.0778 52.0272 79.0168 51.885 78.8949 51.7668C78.7803 51.6523 78.5661 51.5414 78.2521 51.4343C77.9343 51.3198 77.7367 51.2422 77.6592 51.2016C77.2379 50.9874 77.0274 50.6714 77.0274 50.254C77.0274 49.9621 77.1439 49.7128 77.3766 49.5059C77.613 49.299 77.903 49.1956 78.2465 49.1956C78.5495 49.1956 78.8118 49.2732 79.0334 49.4283C79.2551 49.5798 79.4029 49.77 79.4767 49.9991L79.0002 50.1985C78.9558 50.0508 78.8681 49.928 78.737 49.8301C78.6058 49.7321 78.446 49.6833 78.2576 49.6833C78.0581 49.6833 77.89 49.7386 77.7534 49.8495C77.6167 49.953 77.5483 50.0878 77.5483 50.254C77.5483 50.3907 77.6019 50.5089 77.709 50.6086C77.8273 50.7084 78.084 50.8267 78.4792 50.9633C78.882 51.1 79.1692 51.2672 79.341 51.4648C79.5127 51.6624 79.5986 51.9053 79.5986 52.1935ZM88.6255 49.2843V49.772H86.819V51.0299H88.4482V51.5064H86.819V52.7643H88.6255V53.2519H86.3091V49.2843H88.6255ZM95.9179 53.2519H95.4079V49.2843H96.0286L97.957 52.3708H97.9791L97.957 51.6061V49.2843H98.4668V53.2519H97.9349L95.9179 50.0157H95.8956L95.9179 50.7805V53.2519ZM106.873 53.2519H106.341L104.945 49.2843H105.51L106.596 52.5037H106.618L107.749 49.2843H108.314L106.873 53.2519ZM118.593 51.2681C118.593 51.8555 118.397 52.3467 118.006 52.7421C117.61 53.141 117.126 53.3405 116.554 53.3405C115.977 53.3405 115.493 53.141 115.102 52.7421C114.71 52.3467 114.514 51.8555 114.514 51.2681C114.514 50.6807 114.71 50.1894 115.102 49.7941C115.493 49.3951 115.977 49.1956 116.554 49.1956C117.13 49.1956 117.614 49.3969 118.006 49.7996C118.397 50.1948 118.593 50.6844 118.593 51.2681ZM115.035 51.2681C115.035 51.7262 115.179 52.1048 115.468 52.4041C115.759 52.7033 116.122 52.8529 116.554 52.8529C116.986 52.8529 117.346 52.7033 117.634 52.4041C117.926 52.1085 118.072 51.7299 118.072 51.2681C118.072 50.8063 117.926 50.4276 117.634 50.1321C117.346 49.8329 116.986 49.6833 116.554 49.6833C116.122 49.6833 115.759 49.8329 115.468 50.1321C115.179 50.4313 115.035 50.81 115.035 51.2681ZM127.52 53.2519H125.292V49.2843H125.802V52.7643H127.52V53.2519ZM135.411 53.2519H134.879L133.482 49.2843H134.048L135.134 52.5037H135.156L136.286 49.2843H136.852L135.411 53.2519ZM145.729 49.2843V49.772H143.922V51.0299H145.551V51.5064H143.922V52.7643H145.729V53.2519H143.412V49.2843H145.729ZM152.511 53.2519V49.2843H153.725C154.331 49.2843 154.817 49.4671 155.185 49.8329C155.552 50.1985 155.736 50.677 155.736 51.2681C155.736 51.8628 155.552 52.3422 155.185 52.7061C154.817 53.07 154.331 53.2519 153.725 53.2519H152.511V53.2519ZM153.021 49.772V52.7643H153.725C154.187 52.7643 154.55 52.6322 154.816 52.3681C155.082 52.104 155.215 51.7372 155.215 51.2681C155.215 50.8026 155.082 50.4368 154.816 50.1709C154.55 49.9049 154.187 49.772 153.725 49.772H153.021V49.772ZM166.32 51.2681C166.32 51.8555 166.124 52.3467 165.733 52.7421C165.338 53.141 164.854 53.3405 164.281 53.3405C163.705 53.3405 163.221 53.141 162.829 52.7421C162.438 52.3467 162.242 51.8555 162.242 51.2681C162.242 50.6807 162.438 50.1894 162.829 49.7941C163.221 49.3951 163.705 49.1956 164.281 49.1956C164.857 49.1956 165.341 49.3969 165.733 49.7996C166.124 50.1948 166.32 50.6844 166.32 51.2681ZM162.763 51.2681C162.763 51.7262 162.907 52.1048 163.195 52.4041C163.487 52.7033 163.849 52.8529 164.281 52.8529C164.713 52.8529 165.073 52.7033 165.362 52.4041C165.653 52.1085 165.799 51.7299 165.799 51.2681C165.799 50.8063 165.653 50.4276 165.362 50.1321C165.073 49.8329 164.713 49.6833 164.281 49.6833C163.849 49.6833 163.487 49.8329 163.195 50.1321C162.907 50.4313 162.763 50.81 162.763 51.2681ZM173.53 49.772V51.1684H174.35C174.556 51.1684 174.732 51.1009 174.876 50.966C175.02 50.8312 175.092 50.664 175.092 50.4645C175.092 50.2798 175.025 50.1182 174.89 49.9797C174.755 49.8412 174.586 49.772 174.383 49.772H173.53ZM173.53 53.2519H173.02V49.2843H174.372C174.715 49.2843 175.008 49.3979 175.25 49.625C175.492 49.8523 175.613 50.1321 175.613 50.4645C175.613 50.738 175.523 50.9809 175.344 51.1932C175.165 51.4057 174.939 51.5414 174.665 51.6006L174.654 51.6171L175.768 53.2297V53.2519H175.164L174.095 51.6449H173.53V53.2519V53.2519ZM189.843 49.2843H190.375L189.317 53.2519H188.796L187.943 50.6364H187.92L187.067 53.2519H186.546L185.443 49.2843H185.975L186.812 52.4041H186.834L187.693 49.8162H188.17L189.029 52.4041H189.051L189.843 49.2843V49.2843ZM199.275 49.2843V49.772H197.468V51.0299H199.097V51.5064H197.468V52.7643H199.275V53.2519H196.958V49.2843H199.275ZM206.057 53.2519V49.2843H207.492C207.806 49.2843 208.076 49.3877 208.301 49.5946C208.527 49.7978 208.639 50.0545 208.639 50.3648C208.639 50.7564 208.46 51.0316 208.102 51.1905V51.2126C208.305 51.2791 208.467 51.3947 208.589 51.5591C208.711 51.7235 208.772 51.9109 208.772 52.1214C208.772 52.4465 208.654 52.7162 208.418 52.9304C208.189 53.1447 207.906 53.2519 207.57 53.2519H206.057ZM206.567 49.772V50.9854H207.492C207.673 50.9854 207.825 50.9244 207.947 50.8026C208.069 50.677 208.129 50.5348 208.129 50.3758C208.129 50.2207 208.07 50.0803 207.952 49.9547C207.834 49.8329 207.688 49.772 207.514 49.772H206.567V49.772ZM206.567 51.462V52.7643H207.592C207.777 52.7643 207.934 52.6996 208.063 52.5703C208.189 52.441 208.251 52.2876 208.251 52.1103C208.251 51.9368 208.187 51.7854 208.057 51.6559C207.928 51.5267 207.766 51.462 207.57 51.462H206.567V51.462Z" fill="white"/>
<path fill-rule="evenodd" clip-rule="evenodd" d="M9.97175 21.6339C18.6631 21.824 22.7866 20.9137 29.2448 25.3167C33.1657 27.9893 36.9824 32.8095 37.8766 39.4754C39.1177 48.7322 33.4674 57.6414 25.5805 60.8492C22.3677 62.1565 19.4742 62.4342 15.6491 62.4814L15.6609 33.4934L9.9389 33.4129L9.94562 68.1919C21.369 67.8392 25.849 68.7709 33.9052 62.4047C47.2426 51.8646 46.8077 31.8305 34.1003 21.875C25.7884 15.3632 21.8612 16.2959 9.94646 15.928L9.97175 21.6339V21.6339Z" fill="white"/>
<path fill-rule="evenodd" clip-rule="evenodd" d="M1.21893 59.3291L6.76646 59.447L6.92194 30.4722C9.5288 30.213 18.0304 30.1877 20.2851 30.7153C24.106 31.6088 26.7082 34.0952 28.176 37.0994C30.7265 42.3186 28.5587 49.0503 23.8435 51.9627C22.1304 53.0209 20.5185 53.1368 18.6934 53.8566L18.7224 59.3076C29.4352 59.5845 38.7519 46.4358 33.4981 34.991C31.4306 30.4874 27.4614 26.6285 21.8692 25.215C19.1215 24.5206 4.20127 24.3516 1.29815 24.7906L1.21893 59.3291V59.3291Z" fill="#0999F6"/>
</svg>
